<svg width="18" height="18" viewBox="0 0 18 18" fill="none" xmlns="http://www.w3.org/2000/svg">
<path fill-rule="evenodd" clip-rule="evenodd" d="M1.59182 11.8257C-0.656044 6.30823 3.40306 0.271484 9.36088 0.271484H9.6823C14.1379 0.271484 17.7499 3.88349 17.7499 8.33913C17.7499 13.2999 13.7284 17.3215 8.76759 17.3215H0.947308C0.62905 17.3215 0.345448 17.1206 0.23982 16.8204C0.134192 16.5202 0.229543 16.186 0.477686 15.9867L2.44918 14.4034C2.53538 14.3342 2.56587 14.2166 2.52416 14.1142L1.59182 11.8257ZM9.36088 1.77148C4.46834 1.77148 1.13502 6.72884 2.98096 11.2598L3.9133 13.5482C4.2053 14.265 3.99184 15.0884 3.38842 15.573L3.07897 15.8215H8.76759C12.9 15.8215 16.2499 12.4715 16.2499 8.33913C16.2499 4.71192 13.3095 1.77148 9.6823 1.77148H9.36088Z" fill="#A2ABCD"/>
</svg>
