<svg width="40" height="41" viewBox="0 0 40 41" fill="none" xmlns="http://www.w3.org/2000/svg">
<rect x="0.499634" y="1" width="39" height="39" rx="3.5" stroke="white"/>
<g clip-path="url(#clip0_4397_69058)">
<path d="M13.6246 14.125C13.418 14.125 13.2496 13.9566 13.2496 13.75H12.4996C12.4996 14.3702 13.0044 14.875 13.6246 14.875V15.625H14.3746V14.875H15.4996V13.75C15.4996 13.1298 14.9949 12.625 14.3746 12.625H13.6246C13.418 12.625 13.2496 12.4566 13.2496 12.25V11.875H14.3746C14.5813 11.875 14.7496 12.0434 14.7496 12.25H15.4996C15.4996 11.6298 14.9949 11.125 14.3746 11.125V10.375H13.6246V11.125H12.4996V12.25C12.4996 12.8702 13.0044 13.375 13.6246 13.375H14.3746C14.5813 13.375 14.7496 13.5434 14.7496 13.75V14.125H13.6246Z" fill="#1E82C1"/>
<path d="M31.6246 23.5C31.6246 22.6728 30.9519 22 30.1246 22H29.9694L29.7496 22.2197L26.5299 19L26.7496 18.7802V18.625C26.7496 18.2481 26.6053 17.9072 26.3746 17.6432V12.625C26.3746 11.5911 25.5335 10.75 24.4996 10.75H17.4526C16.7154 9.62275 15.4441 8.875 13.9996 8.875C12.5551 8.875 11.2839 9.62275 10.5466 10.75H10.2496C9.21576 10.75 8.37463 11.5911 8.37463 12.625V22.375C8.37463 23.4089 9.21576 24.25 10.2496 24.25H14.6041L14.1043 25.75H13.2496C12.4224 25.75 11.7496 26.4228 11.7496 27.25V28.75H17.9698L17.0454 29.6744C16.7739 29.9455 16.6246 30.3055 16.6246 30.6895C16.6246 31.4808 17.2685 32.125 18.0605 32.125C18.4438 32.125 18.8041 31.9758 19.0756 31.7046L25.2496 25.5303L25.8444 26.125L25.6246 26.3447V26.5C25.6246 26.7809 25.7071 27.0411 25.8418 27.2661C24.8829 27.3475 24.1246 28.1451 24.1246 29.125V30.25H31.6246V29.125C31.6246 28.0911 30.7835 27.25 29.7496 27.25H28.0299L31.6246 23.6553V23.5ZM22.1079 22.3615C21.8079 22.3041 21.5709 22.0671 21.5135 21.7667L25.3918 17.8885C25.6918 17.9459 25.9288 18.1832 25.9861 18.4829L22.1079 22.3615ZM13.9996 9.625C15.8604 9.625 17.3746 11.1393 17.3746 13C17.3746 14.8608 15.8604 16.375 13.9996 16.375C12.1389 16.375 10.6246 14.8608 10.6246 13C10.6246 11.1393 12.1389 9.625 13.9996 9.625ZM21.4996 18.25C21.7063 18.25 21.8746 18.4184 21.8746 18.625C21.8746 18.8316 21.7063 19 21.4996 19C21.293 19 21.1246 18.8316 21.1246 18.625C21.1246 18.4184 21.293 18.25 21.4996 18.25ZM21.1745 17.5H17.2824L16.8474 15.9771C17.0758 15.7589 17.279 15.5155 17.4526 15.25H21.4959L21.1745 17.5ZM17.3746 18.625C17.3746 18.8316 17.2063 19 16.9996 19C16.793 19 16.6246 18.8316 16.6246 18.625C16.6246 18.4184 16.793 18.25 16.9996 18.25C17.2063 18.25 17.3746 18.4184 17.3746 18.625ZM10.1578 11.5094C9.97738 11.9725 9.87463 12.4739 9.87463 13C9.87463 15.2744 11.7253 17.125 13.9996 17.125C14.8134 17.125 15.5705 16.885 16.2103 16.477L16.5324 17.605C16.1454 17.7828 15.8746 18.1716 15.8746 18.625C15.8746 19.2452 16.3794 19.75 16.9996 19.75C17.6199 19.75 18.1246 19.2452 18.1246 18.625C18.1246 18.493 18.0976 18.3678 18.0556 18.25H20.444C20.4016 18.3678 20.3746 18.493 20.3746 18.625C20.3746 19.2452 20.8794 19.75 21.4996 19.75C22.1199 19.75 22.6246 19.2452 22.6246 18.625C22.6246 18.1536 22.3325 17.7501 21.92 17.5833L22.3606 14.5H23.7496C24.3699 14.5 24.8746 13.9952 24.8746 13.375C24.8746 12.7548 24.3699 12.25 23.7496 12.25H22.8999C22.3438 12.25 21.8649 12.6651 21.7865 13.216L21.6031 14.5H17.8381C18.0208 14.0343 18.1246 13.5295 18.1246 13C18.1246 12.4705 18.0208 11.9657 17.8381 11.5H24.4996C25.1199 11.5 25.6246 12.0048 25.6246 12.625V17.1783C25.5039 17.1468 25.3798 17.125 25.2496 17.125H25.0944L21.7194 20.5H9.12463V12.625C9.12463 12.0363 9.58101 11.557 10.1578 11.5094ZM22.4679 13.75L22.529 13.3217C22.5553 13.1384 22.7146 13 22.8999 13H23.7496C23.9563 13 24.1246 13.1684 24.1246 13.375C24.1246 13.5816 23.9563 13.75 23.7496 13.75H22.4679ZM9.12463 22.375V21.25H20.9694L20.7496 21.4697V21.625C20.7496 22.4522 21.4224 23.125 22.2496 23.125H22.4049L22.6246 22.9053L23.2194 23.5H10.2496C9.62938 23.5 9.12463 22.9952 9.12463 22.375ZM20.9694 25.75H20.645L20.1451 24.25H22.4698L20.9694 25.75ZM15.395 24.25H19.3543L19.8541 25.75H14.8951L15.395 24.25ZM12.4996 28V27.25C12.4996 26.8364 12.836 26.5 13.2496 26.5H20.2194L18.7194 28H12.4996ZM18.5454 31.1744C18.4156 31.3038 18.2435 31.375 18.0605 31.375C17.6821 31.375 17.3746 31.0675 17.3746 30.6895C17.3746 30.5091 17.4478 30.3325 17.5756 30.2046L23.7496 24.0303L24.7194 25L18.5454 31.1744ZM23.1549 22.375L25.9996 19.5302L29.2194 22.75L26.3746 25.5947L23.1549 22.375ZM29.7496 28C30.3699 28 30.8746 28.5047 30.8746 29.125V29.5H24.8746V29.125C24.8746 28.5047 25.3794 28 25.9996 28H27.1246H27.2799H29.7496ZM26.9829 27.2365C26.6829 27.1791 26.4459 26.9421 26.3885 26.6418L30.2668 22.7635C30.5668 22.8209 30.8038 23.0579 30.8611 23.3583L26.9829 27.2365Z" fill="#1E82C1"/>
</g>
<defs>
<clipPath id="clip0_4397_69058">
<rect width="24" height="24" fill="white" transform="translate(7.99963 8.5)"/>
</clipPath>
</defs>
</svg>
