<svg width="40" height="40" viewBox="0 0 40 40" fill="none" xmlns="http://www.w3.org/2000/svg">
<path d="M21.2503 11.6666C21.2503 10.9763 20.6907 10.4166 20.0003 10.4166C19.31 10.4166 18.7503 10.9763 18.7503 11.6666V18.75H11.667C10.9766 18.75 10.417 19.3096 10.417 20C10.417 20.6903 10.9766 21.25 11.667 21.25H18.7503V28.3333C18.7503 29.0236 19.31 29.5833 20.0003 29.5833C20.6907 29.5833 21.2503 29.0236 21.2503 28.3333V21.25H28.3337C29.024 21.25 29.5837 20.6903 29.5837 20C29.5837 19.3096 29.024 18.75 28.3337 18.75H21.2503V11.6666Z" fill="#A2ABCD"/>
</svg>
