<svg width="200" height="200" viewBox="0 0 200 200" fill="none" xmlns="http://www.w3.org/2000/svg">
<path d="M46.875 46.875C45.1531 46.875 43.75 45.4719 43.75 43.75H37.5C37.5 48.9188 41.7062 53.125 46.875 53.125V59.375H53.125V53.125H62.5V43.75C62.5 38.5812 58.2938 34.375 53.125 34.375H46.875C45.1531 34.375 43.75 32.9719 43.75 31.25V28.125H53.125C54.8469 28.125 56.25 29.5281 56.25 31.25H62.5C62.5 26.0813 58.2938 21.875 53.125 21.875V15.625H46.875V21.875H37.5V31.25C37.5 36.4188 41.7062 40.625 46.875 40.625H53.125C54.8469 40.625 56.25 42.0281 56.25 43.75V46.875H46.875Z" fill="url(#paint0_linear_1577_12262)"/>
<path d="M196.875 125C196.875 118.106 191.269 112.5 184.375 112.5H183.081L181.25 114.331L154.419 87.5L156.25 85.6687V84.375C156.25 81.2344 155.047 78.3937 153.125 76.1937V34.375C153.125 25.7594 146.116 18.75 137.5 18.75H78.775C72.6313 9.35625 62.0375 3.125 50 3.125C37.9625 3.125 27.3687 9.35625 21.225 18.75H18.75C10.1344 18.75 3.125 25.7594 3.125 34.375V115.625C3.125 124.241 10.1344 131.25 18.75 131.25H55.0375L50.8719 143.75H43.75C36.8562 143.75 31.25 149.356 31.25 156.25V168.75H83.0844L75.3812 176.453C73.1187 178.713 71.875 181.713 71.875 184.913C71.875 191.506 77.2406 196.875 83.8406 196.875C87.0344 196.875 90.0375 195.631 92.3 193.372L143.75 141.919L148.706 146.875L146.875 148.706V150C146.875 152.341 147.562 154.509 148.684 156.384C140.694 157.062 134.375 163.709 134.375 171.875V181.25H196.875V171.875C196.875 163.259 189.866 156.25 181.25 156.25H166.919L196.875 126.294V125ZM117.569 115.513C115.069 115.034 113.094 113.059 112.616 110.556L144.934 78.2375C147.434 78.7156 149.409 80.6938 149.888 83.1906L117.569 115.513ZM50 9.375C65.5062 9.375 78.125 21.9938 78.125 37.5C78.125 53.0062 65.5062 65.625 50 65.625C34.4938 65.625 21.875 53.0062 21.875 37.5C21.875 21.9938 34.4938 9.375 50 9.375ZM112.5 81.25C114.222 81.25 115.625 82.6531 115.625 84.375C115.625 86.0969 114.222 87.5 112.5 87.5C110.778 87.5 109.375 86.0969 109.375 84.375C109.375 82.6531 110.778 81.25 112.5 81.25ZM109.791 75H77.3562L73.7312 62.3094C75.6344 60.4906 77.3281 58.4625 78.775 56.25H112.469L109.791 75ZM78.125 84.375C78.125 86.0969 76.7219 87.5 75 87.5C73.2781 87.5 71.875 86.0969 71.875 84.375C71.875 82.6531 73.2781 81.25 75 81.25C76.7219 81.25 78.125 82.6531 78.125 84.375ZM17.9844 25.0781C16.4813 28.9375 15.625 33.1156 15.625 37.5C15.625 56.4531 31.0469 71.875 50 71.875C56.7813 71.875 63.0906 69.875 68.4219 66.475L71.1062 75.875C67.8812 77.3563 65.625 80.5969 65.625 84.375C65.625 89.5438 69.8312 93.75 75 93.75C80.1688 93.75 84.375 89.5438 84.375 84.375C84.375 83.275 84.15 82.2313 83.8 81.25H103.703C103.35 82.2313 103.125 83.275 103.125 84.375C103.125 89.5438 107.331 93.75 112.5 93.75C117.669 93.75 121.875 89.5438 121.875 84.375C121.875 80.4469 119.441 77.0844 116.003 75.6938L119.675 50H131.25C136.419 50 140.625 45.7938 140.625 40.625C140.625 35.4562 136.419 31.25 131.25 31.25H124.169C119.534 31.25 115.544 34.7094 114.891 39.3L113.363 50H81.9875C83.5094 46.1188 84.375 41.9125 84.375 37.5C84.375 33.0875 83.5094 28.8812 81.9875 25H137.5C142.669 25 146.875 29.2062 146.875 34.375V72.3188C145.869 72.0563 144.834 71.875 143.75 71.875H142.456L114.331 100H9.375V34.375C9.375 29.4687 13.1781 25.475 17.9844 25.0781V25.0781ZM120.569 43.75L121.078 40.1812C121.297 38.6531 122.625 37.5 124.169 37.5H131.25C132.972 37.5 134.375 38.9031 134.375 40.625C134.375 42.3469 132.972 43.75 131.25 43.75H120.569ZM9.375 115.625V106.25H108.081L106.25 108.081V109.375C106.25 116.269 111.856 121.875 118.75 121.875H120.044L121.875 120.044L126.831 125H18.75C13.5812 125 9.375 120.794 9.375 115.625ZM108.081 143.75H105.378L101.213 131.25H120.584L108.081 143.75ZM61.6281 131.25H94.6219L98.7875 143.75H57.4625L61.6281 131.25ZM37.5 162.5V156.25C37.5 152.803 40.3031 150 43.75 150H101.831L89.3313 162.5H37.5ZM87.8812 188.953C86.8 190.031 85.3656 190.625 83.8406 190.625C80.6875 190.625 78.125 188.063 78.125 184.913C78.125 183.409 78.7344 181.938 79.8 180.872L131.25 129.419L139.331 137.5L87.8812 188.953ZM126.294 115.625L150 91.9187L176.831 118.75L153.125 142.456L126.294 115.625ZM181.25 162.5C186.419 162.5 190.625 166.706 190.625 171.875V175H140.625V171.875C140.625 166.706 144.831 162.5 150 162.5H159.375H160.669H181.25ZM158.194 156.138C155.694 155.659 153.719 153.684 153.241 151.181L185.559 118.862C188.059 119.341 190.034 121.316 190.513 123.819L158.194 156.138Z" fill="url(#paint1_linear_1577_12262)"/>
<path d="M22.5 87.5H53.75V93.75H22.5V87.5Z" fill="url(#paint2_linear_1577_12262)"/>
<defs>
<linearGradient id="paint0_linear_1577_12262" x1="37.5" y1="37.6411" x2="62.5" y2="37.6411" gradientUnits="userSpaceOnUse">
<stop stop-color="#1F81C2"/>
<stop offset="1" stop-color="#8E35A6"/>
</linearGradient>
<linearGradient id="paint1_linear_1577_12262" x1="3.125" y1="100.625" x2="196.875" y2="100.625" gradientUnits="userSpaceOnUse">
<stop stop-color="#1F81C2"/>
<stop offset="1" stop-color="#8E35A6"/>
</linearGradient>
<linearGradient id="paint2_linear_1577_12262" x1="22.5" y1="90.6452" x2="53.75" y2="90.6452" gradientUnits="userSpaceOnUse">
<stop stop-color="#1F81C2"/>
<stop offset="1" stop-color="#8E35A6"/>
</linearGradient>
</defs>
</svg>
