<svg width="200" height="200" viewBox="0 0 200 200" fill="none" xmlns="http://www.w3.org/2000/svg">
<g clip-path="url(#clip0_1305_142)">
<path d="M196.875 175H187.5V134.375C187.497 131.889 186.509 129.507 184.751 127.749C182.993 125.991 180.611 125.003 178.125 125H175V115.625C175 114.796 174.671 114.001 174.085 113.415C173.499 112.829 172.704 112.5 171.875 112.5H161.557C159.595 102.972 154.724 94.2875 147.616 87.6454C140.508 81.0033 131.514 76.7308 121.875 75.4176V71.875C121.872 69.3895 120.883 67.0066 119.126 65.2491C117.368 63.4915 114.986 62.5029 112.5 62.5H100C97.5145 62.5029 95.1316 63.4915 93.3741 65.2491C91.6165 67.0066 90.6279 69.3895 90.625 71.875V75H71.875V71.875C71.875 69.3886 70.8873 67.004 69.1291 65.2459C67.371 63.4877 64.9864 62.5 62.5 62.5C60.0136 62.5 57.629 63.4877 55.8709 65.2459C54.1127 67.004 53.125 69.3886 53.125 71.875V75C40.693 75 28.7701 79.9386 19.9794 88.7294C11.1886 97.5201 6.25 109.443 6.25 121.875C6.25 134.307 11.1886 146.23 19.9794 155.021C28.7701 163.811 40.693 168.75 53.125 168.75V175H3.125C2.2962 175 1.50134 175.329 0.915291 175.915C0.32924 176.501 0 177.296 0 178.125L0 190.625C0 191.454 0.32924 192.249 0.915291 192.835C1.50134 193.421 2.2962 193.75 3.125 193.75H196.875C197.704 193.75 198.499 193.421 199.085 192.835C199.671 192.249 200 191.454 200 190.625V178.125C200 177.296 199.671 176.501 199.085 175.915C198.499 175.329 197.704 175 196.875 175ZM175 140.625V131.25H178.125C178.954 131.251 179.748 131.58 180.334 132.166C180.92 132.752 181.249 133.546 181.25 134.375V175H171.875V159.375C171.872 156.889 170.883 154.507 169.126 152.749C167.368 150.992 164.986 150.003 162.5 150H153.134C154.622 148.025 155.95 145.935 157.106 143.75H171.875C172.704 143.75 173.499 143.421 174.085 142.835C174.671 142.249 175 141.454 175 140.625ZM97.2414 175H71.875V168.75H98.0227L97.2414 175ZM121.509 175L120.693 168.477C130.712 167.402 140.114 163.113 147.493 156.25H162.5C163.329 156.251 164.123 156.58 164.709 157.166C165.295 157.752 165.624 158.546 165.625 159.375V175H121.509ZM168.75 118.75V137.5H159.844C161.609 132.48 162.507 127.196 162.5 121.875C162.5 120.825 162.461 119.783 162.393 118.75H168.75ZM96.875 71.875C96.8759 71.0465 97.2055 70.2522 97.7913 69.6663C98.3772 69.0805 99.1715 68.7509 100 68.75H112.5C113.329 68.7509 114.123 69.0805 114.709 69.6663C115.295 70.2522 115.624 71.0465 115.625 71.875V75H96.875V71.875ZM115.625 81.25C122.444 81.2527 129.152 82.9717 135.133 86.2484C141.113 89.5251 146.172 94.2542 149.844 100H78.125V106.25H153.125C155.559 112.088 156.596 118.413 156.153 124.722C155.711 131.032 153.801 137.15 150.576 142.591C147.351 148.032 142.9 152.644 137.578 156.061C132.256 159.478 126.209 161.605 119.92 162.272L118.728 152.737C118.633 151.981 118.266 151.286 117.694 150.782C117.123 150.278 116.387 150 115.625 150H103.125C102.363 150 101.628 150.278 101.057 150.782C100.486 151.286 100.119 151.982 100.024 152.737L98.8039 162.5H71.875V81.25H115.625ZM115.21 175H103.54L105.884 156.25H112.866L115.21 175ZM65.625 150H59.375V143.75H65.625V150ZM65.625 137.5H59.375V131.25H65.625V137.5ZM65.625 125H59.375V118.75H65.625V125ZM65.625 112.5H59.375V106.25H65.625V112.5ZM65.625 100H59.375V93.75H65.625V100ZM65.625 87.5H59.375V81.25H65.625V87.5ZM59.375 156.25H65.625V162.5H59.375V156.25ZM59.375 71.875C59.375 71.0462 59.7042 70.2513 60.2903 69.6653C60.8763 69.0792 61.6712 68.75 62.5 68.75C63.3288 68.75 64.1237 69.0792 64.7097 69.6653C65.2958 70.2513 65.625 71.0462 65.625 71.875V75H59.375V71.875ZM12.5 121.875C12.4912 116.513 13.5455 111.202 15.602 106.25H46.875V100H18.8773C20.4658 97.5245 22.3162 95.2271 24.3965 93.1477C28.1609 89.364 32.6382 86.3643 37.5694 84.3221C42.5005 82.2799 47.7877 81.2357 53.125 81.25V162.5C42.3543 162.488 32.0283 158.204 24.4123 150.588C16.7962 142.972 12.5122 132.646 12.5 121.875ZM59.375 168.75H65.625V175H59.375V168.75ZM193.75 187.5H6.25V181.25H193.75V187.5Z" fill="url(#paint0_linear_1305_142)"/>
<path d="M168.75 100V53.125H175V46.875H12.5V53.125H18.75V75H25V53.125H162.5V100H168.75Z" fill="url(#paint1_linear_1305_142)"/>
<path d="M140.625 34.375H146.875V40.625H140.625V34.375Z" fill="url(#paint2_linear_1305_142)"/>
<path d="M134.375 12.5V21.875H106.25C105.421 21.875 104.626 22.2042 104.04 22.7903C103.454 23.3763 103.125 24.1712 103.125 25V40.625H109.375V28.125H153.125V40.625H159.375V25C159.375 24.1712 159.046 23.3763 158.46 22.7903C157.874 22.2042 157.079 21.875 156.25 21.875H153.125V6.25H146.875V21.875H140.625V12.5H134.375Z" fill="url(#paint3_linear_1305_142)"/>
<path d="M115.625 34.375H121.875V40.625H115.625V34.375Z" fill="url(#paint4_linear_1305_142)"/>
<path d="M128.125 34.375H134.375V40.625H128.125V34.375Z" fill="url(#paint5_linear_1305_142)"/>
</g>
<defs>
<linearGradient id="paint0_linear_1305_142" x1="5.0938e-06" y1="128.548" x2="200" y2="128.548" gradientUnits="userSpaceOnUse">
<stop stop-color="#1F81C2"/>
<stop offset="1" stop-color="#8E35A6"/>
</linearGradient>
<linearGradient id="paint1_linear_1305_142" x1="12.5" y1="73.6089" x2="175" y2="73.6089" gradientUnits="userSpaceOnUse">
<stop stop-color="#1F81C2"/>
<stop offset="1" stop-color="#8E35A6"/>
</linearGradient>
<linearGradient id="paint2_linear_1305_142" x1="140.625" y1="37.5202" x2="146.875" y2="37.5202" gradientUnits="userSpaceOnUse">
<stop stop-color="#1F81C2"/>
<stop offset="1" stop-color="#8E35A6"/>
</linearGradient>
<linearGradient id="paint3_linear_1305_142" x1="103.125" y1="23.5484" x2="159.375" y2="23.5484" gradientUnits="userSpaceOnUse">
<stop stop-color="#1F81C2"/>
<stop offset="1" stop-color="#8E35A6"/>
</linearGradient>
<linearGradient id="paint4_linear_1305_142" x1="115.625" y1="37.5202" x2="121.875" y2="37.5202" gradientUnits="userSpaceOnUse">
<stop stop-color="#1F81C2"/>
<stop offset="1" stop-color="#8E35A6"/>
</linearGradient>
<linearGradient id="paint5_linear_1305_142" x1="128.125" y1="37.5202" x2="134.375" y2="37.5202" gradientUnits="userSpaceOnUse">
<stop stop-color="#1F81C2"/>
<stop offset="1" stop-color="#8E35A6"/>
</linearGradient>
<clipPath id="clip0_1305_142">
<rect width="200" height="200" fill="white"/>
</clipPath>
</defs>
</svg>
