<svg width="20" height="20" viewBox="0 0 20 20" fill="none" xmlns="http://www.w3.org/2000/svg">
<path d="M14.0002 4.99998C14.0002 4.4477 14.4479 3.99998 15.0002 3.99998C15.5525 3.99998 16.0002 4.4477 16.0002 4.99998C16.0002 5.55227 15.5525 5.99998 15.0002 5.99998C14.4479 5.99998 14.0002 5.55227 14.0002 4.99998Z" fill="#A2ABCD"/>
<path fill-rule="evenodd" clip-rule="evenodd" d="M10.0002 5.24998C7.37683 5.24998 5.25018 7.37663 5.25018 9.99998C5.25018 12.6233 7.37683 14.75 10.0002 14.75C12.6235 14.75 14.7502 12.6233 14.7502 9.99998C14.7502 7.37663 12.6235 5.24998 10.0002 5.24998ZM6.75018 9.99998C6.75018 8.20506 8.20526 6.74998 10.0002 6.74998C11.7951 6.74998 13.2502 8.20506 13.2502 9.99998C13.2502 11.7949 11.7951 13.25 10.0002 13.25C8.20526 13.25 6.75018 11.7949 6.75018 9.99998Z" fill="#A2ABCD"/>
<path fill-rule="evenodd" clip-rule="evenodd" d="M15.2584 0.833C11.7919 0.445559 8.20853 0.445559 4.74195 0.833C2.7299 1.05788 1.10556 2.64289 0.869009 4.66542C0.454471 8.20971 0.454471 11.7903 0.869009 15.3346C1.10556 17.3571 2.7299 18.9421 4.74195 19.167C8.20853 19.5544 11.7919 19.5544 15.2584 19.167C17.2705 18.9421 18.8948 17.3571 19.1314 15.3346C19.5459 11.7903 19.5459 8.20971 19.1314 4.66542C18.8948 2.64289 17.2705 1.05788 15.2584 0.833ZM4.90856 2.32372C8.26441 1.94865 11.736 1.94865 15.0918 2.32372C16.4219 2.47238 17.4874 3.52199 17.6415 4.83967C18.0425 8.26819 18.0425 11.7318 17.6415 15.1603C17.4874 16.478 16.4219 17.5276 15.0918 17.6762C11.736 18.0513 8.26441 18.0513 4.90856 17.6762C3.57846 17.5276 2.51297 16.478 2.35885 15.1603C1.95786 11.7318 1.95786 8.26819 2.35885 4.83967C2.51297 3.52199 3.57845 2.47238 4.90856 2.32372Z" fill="#A2ABCD"/>
</svg>
