<svg width="22" height="16" viewBox="0 0 22 16" fill="none" xmlns="http://www.w3.org/2000/svg">
<path fill-rule="evenodd" clip-rule="evenodd" d="M9.38599 4.35691C9.1543 4.21789 8.86573 4.21425 8.6306 4.34738C8.39547 4.48051 8.25012 4.72983 8.25012 5.00003V11C8.25012 11.2702 8.39547 11.5196 8.6306 11.6527C8.86573 11.7858 9.1543 11.7822 9.38599 11.6432L14.386 8.64315C14.6119 8.50761 14.7501 8.26348 14.7501 8.00003C14.7501 7.73658 14.6119 7.49245 14.386 7.35691L9.38599 4.35691ZM12.5424 8.00003L9.75012 9.67539V6.32467L12.5424 8.00003Z" fill="#A2ABCD"/>
<path fill-rule="evenodd" clip-rule="evenodd" d="M16.0308 0.641311C12.6821 0.379329 9.31816 0.379328 5.96951 0.641311L3.72881 0.816613C2.36624 0.923214 1.25155 1.94442 1.02632 3.29246C0.505551 6.40924 0.505551 9.59082 1.02632 12.7076C1.25155 14.0556 2.36624 15.0768 3.72881 15.1834L5.96951 15.3587C9.31815 15.6207 12.6821 15.6207 16.0308 15.3587L18.2715 15.1834C19.6341 15.0768 20.7488 14.0556 20.974 12.7076C21.4948 9.59082 21.4948 6.40924 20.974 3.29246C20.7488 1.94442 19.6341 0.923214 18.2715 0.816613L16.0308 0.641311ZM6.0865 2.13674C9.35728 1.88085 12.643 1.88085 15.9138 2.13674L18.1545 2.31204C18.8301 2.3649 19.3828 2.87125 19.4945 3.53966C19.9879 6.49277 19.9879 9.50729 19.4945 12.4604C19.3828 13.1288 18.8301 13.6352 18.1545 13.688L15.9138 13.8633C12.643 14.1192 9.35727 14.1192 6.0865 13.8633L3.8458 13.688C3.17019 13.6352 2.61749 13.1288 2.50581 12.4604C2.01239 9.50729 2.01239 6.49277 2.50581 3.53966C2.61749 2.87125 3.17019 2.3649 3.8458 2.31204L6.0865 2.13674Z" fill="#A2ABCD"/>
</svg>
