<svg width="14" height="10" viewBox="0 0 14 10" fill="none" xmlns="http://www.w3.org/2000/svg">
<path fill-rule="evenodd" clip-rule="evenodd" d="M0.444336 5C0.444336 2.51472 2.44694 0.5 4.91728 0.5H10.2186C11.9569 0.5 13.3662 1.91777 13.3662 3.66667C13.3662 5.41557 11.9569 6.83333 10.2185 6.83333H4.82262C3.81618 6.83333 3.0003 6.01252 3.0003 5C3.0003 3.98748 3.81618 3.16667 4.82262 3.16667H10.0292C10.3037 3.16667 10.5262 3.39052 10.5262 3.66667C10.5262 3.94281 10.3037 4.16667 10.0292 4.16667H4.82262C4.36515 4.16667 3.99429 4.53976 3.99429 5C3.99429 5.46024 4.36515 5.83333 4.82262 5.83333H10.2185C11.408 5.83333 12.3722 4.86328 12.3722 3.66667C12.3722 2.47005 11.408 1.5 10.2186 1.5H4.91728C2.99591 1.5 1.43832 3.067 1.43832 5C1.43832 6.933 2.99591 8.5 4.91728 8.5H10.0292C10.3037 8.5 10.5262 8.72386 10.5262 9C10.5262 9.27614 10.3037 9.5 10.0292 9.5H4.91728C2.44694 9.5 0.444336 7.48528 0.444336 5Z" fill="#A2ABCD"/>
</svg>
