<svg width="18" height="19" viewBox="0 0 18 19" fill="none" xmlns="http://www.w3.org/2000/svg">
<path fill-rule="evenodd" clip-rule="evenodd" d="M3.99982 0.771484C4.41403 0.771484 4.74982 1.10727 4.74982 1.52148V3.18911C7.57755 2.93729 10.4221 2.93729 13.2498 3.18912V1.52148C13.2498 1.10727 13.5856 0.771484 13.9998 0.771484C14.414 0.771484 14.7498 1.10727 14.7498 1.52148V3.33792C16.2429 3.54903 17.4224 4.72995 17.6221 6.23632L17.7086 6.88927C18.0726 9.6356 18.0412 12.4199 17.6152 15.1573C17.4042 16.5134 16.3026 17.5549 14.9368 17.6896L13.7438 17.8073C10.5888 18.1184 7.41079 18.1184 4.25574 17.8073L3.06274 17.6896C1.697 17.5549 0.595338 16.5134 0.384328 15.1573C-0.0416297 12.4199 -0.0730704 9.6356 0.290965 6.88928L0.377517 6.23632C0.577193 4.72994 1.75674 3.549 3.24982 3.33791V1.52148C3.24982 1.10727 3.5856 0.771484 3.99982 0.771484ZM4.44498 4.72429C7.47417 4.42556 10.5254 4.42556 13.5546 4.72429L14.46 4.81358C15.3268 4.89906 16.0206 5.57003 16.1351 6.43343L16.2216 7.08638C16.2519 7.31449 16.2792 7.54288 16.3037 7.77148H1.69588C1.72036 7.54288 1.74772 7.31449 1.77796 7.08638L1.86451 6.43343C1.97896 5.57003 2.67278 4.89906 3.53953 4.81358L4.44498 4.72429ZM1.57665 9.27148C1.47847 11.1596 1.5752 13.0547 1.86649 14.9267C1.97233 15.6069 2.52491 16.1293 3.20995 16.1969L4.40295 16.3145C7.46009 16.616 10.5395 16.616 13.5966 16.3145L14.7896 16.1969C15.4747 16.1293 16.0272 15.6069 16.1331 14.9267C16.4244 13.0547 16.5211 11.1596 16.4229 9.27148H1.57665Z" fill="#A2ABCD"/>
</svg>
