<svg width="16" height="21" viewBox="0 0 16 21" fill="none" xmlns="http://www.w3.org/2000/svg">
<path fill-rule="evenodd" clip-rule="evenodd" d="M9.00018 1.52148C9.00018 0.9692 8.55247 0.521484 8.00018 0.521484C7.4479 0.521484 7.00018 0.9692 7.00018 1.52148V2.27148H6.44277C4.21769 2.27148 2.3761 4.0015 2.2372 6.22223L2.0162 9.75568C1.93194 11.1029 1.47965 12.4011 0.708587 13.5091C0.011905 14.5101 0.632125 15.8927 1.84306 16.038L5.25018 16.4469V17.5215C5.25018 19.0403 6.4814 20.2715 8.00018 20.2715C9.51897 20.2715 10.7502 19.0403 10.7502 17.5215V16.4469L14.1573 16.038C15.3682 15.8927 15.9885 14.5101 15.2918 13.5091C14.5207 12.4011 14.0684 11.1029 13.9842 9.75568L13.7632 6.22223C13.6243 4.0015 11.7827 2.27148 9.55759 2.27148H9.00018V1.52148ZM6.44277 3.77148C5.00976 3.77148 3.82373 4.88566 3.73427 6.31586L3.51327 9.84932C3.41188 11.4705 2.86762 13.0327 1.93977 14.3659C1.88942 14.4383 1.93425 14.5382 2.02177 14.5487L5.75943 14.9972C7.24792 15.1758 8.75243 15.1758 10.2409 14.9972L13.9786 14.5487C14.0661 14.5382 14.1109 14.4383 14.0606 14.3659C13.1327 13.0327 12.5885 11.4705 12.4871 9.84932L12.2661 6.31586C12.1766 4.88566 10.9906 3.77148 9.55759 3.77148H6.44277ZM8.00018 18.7715C7.30983 18.7715 6.75018 18.2118 6.75018 17.5215V16.7715H9.25018V17.5215C9.25018 18.2118 8.69054 18.7715 8.00018 18.7715Z" fill="#A2ABCD"/>
</svg>
