<svg width="100" height="40" viewBox="0 0 100 40" fill="none" xmlns="http://www.w3.org/2000/svg">
<g clip-path="url(#clip0_3598_1499)">
<path d="M62.8322 40.527H65.1132L62.0111 31.5596H59.3521L56.25 40.527H58.531L58.9872 39.1178H62.376L62.8322 40.527ZM59.6128 37.1962L60.6816 33.9039L61.7504 37.1962H59.6128Z" fill="url(#paint0_linear_3598_1499)"/>
<path d="M67.9114 38.5541V31.5596H65.826V40.527H71.1699V38.5541H67.9114Z" fill="url(#paint1_linear_3598_1499)"/>
<path d="M74.1087 38.5541V31.5596H72.0232V40.527H77.3672V38.5541H74.1087Z" fill="url(#paint2_linear_3598_1499)"/>
<path d="M81.6746 31.5596H78.2205V40.527H80.306V37.7086H81.6746C83.4733 37.7086 84.8679 36.3379 84.8679 34.6341C84.8679 32.9303 83.4733 31.5596 81.6746 31.5596ZM81.6746 35.7871H80.306V33.4812H81.6746C82.3132 33.4812 82.7825 33.9808 82.7825 34.6341C82.7825 35.2874 82.3132 35.7871 81.6746 35.7871Z" fill="url(#paint3_linear_3598_1499)"/>
<path d="M87.9289 38.5541V36.9656H91.1874V35.0184H87.9289V33.5324H91.5132V31.5596H85.8434V40.527H91.5784V38.5541H87.9289Z" fill="url(#paint4_linear_3598_1499)"/>
<path d="M97.4864 40.527H99.7283L97.7862 37.2346C98.7898 36.735 99.4676 35.7358 99.4676 34.6341C99.4676 32.9303 98.0729 31.5596 96.3394 31.5596H92.6899V40.527H94.7753V37.5805H95.7659L97.4864 40.527ZM94.7753 33.4812H96.3394C96.9129 33.4812 97.3821 33.9808 97.3821 34.6341C97.3821 35.2874 96.9129 35.7871 96.3394 35.7871H94.7753V33.4812Z" fill="url(#paint5_linear_3598_1499)"/>
<circle cx="15.625" cy="16.75" r="15.625" fill="url(#paint6_linear_3598_1499)"/>
<path d="M41.137 3.63424C40.7783 3.63424 40.4734 3.51033 40.2223 3.2625C39.9712 3.01467 39.8457 2.70978 39.8457 2.34783C39.8457 1.98587 39.9712 1.68098 40.2223 1.43315C40.4734 1.18533 40.7783 1.06141 41.137 1.06141C41.499 1.06141 41.8039 1.18533 42.0517 1.43315C42.3028 1.68098 42.4283 1.98587 42.4283 2.34783C42.4283 2.70978 42.3028 3.01467 42.0517 3.2625C41.8039 3.51033 41.499 3.63424 41.137 3.63424ZM40.5941 2.90054C40.7408 3.04728 40.9218 3.12065 41.137 3.12065C41.3522 3.12065 41.5332 3.04728 41.6799 2.90054C41.8267 2.7538 41.9001 2.56957 41.9001 2.34783C41.9001 2.12609 41.8267 1.94185 41.6799 1.79511C41.5332 1.64837 41.3522 1.575 41.137 1.575C40.9218 1.575 40.7408 1.64837 40.5941 1.79511C40.4473 1.94185 40.374 2.12609 40.374 2.34783C40.374 2.56957 40.4473 2.7538 40.5941 2.90054Z" fill="url(#paint7_linear_3598_1499)"/>
<path d="M43.4293 0.660326C43.3641 0.725543 43.2859 0.758152 43.1946 0.758152C43.1033 0.758152 43.0234 0.725543 42.9549 0.660326C42.8897 0.591848 42.8571 0.511956 42.8571 0.420652C42.8571 0.329348 42.8897 0.251087 42.9549 0.18587C43.0201 0.117391 43.1 0.083152 43.1946 0.083152C43.2891 0.083152 43.369 0.117391 43.4342 0.18587C43.4995 0.251087 43.5321 0.329348 43.5321 0.420652C43.5321 0.511956 43.4978 0.591848 43.4293 0.660326ZM42.9304 3.57065V1.125H43.4587V3.57065H42.9304Z" fill="url(#paint8_linear_3598_1499)"/>
<path d="M44.0965 3.57065V0H44.6248V3.57065H44.0965Z" fill="url(#paint9_linear_3598_1499)"/>
<path d="M49.1805 1.06141C49.4577 1.06141 49.6811 1.15109 49.8506 1.33043C50.0202 1.50978 50.105 1.75109 50.105 2.05435V3.57065H49.5767V2.08859C49.5767 1.91902 49.5343 1.78859 49.4496 1.69728C49.3648 1.60272 49.249 1.55543 49.1023 1.55543C48.9392 1.55543 48.8088 1.60924 48.711 1.71685C48.6164 1.82446 48.5691 1.98587 48.5691 2.20109V3.57065H48.0409V2.08859C48.0409 1.91902 48.0001 1.78859 47.9186 1.69728C47.8403 1.60272 47.7278 1.55543 47.5811 1.55543C47.4213 1.55543 47.2909 1.61087 47.1898 1.72174C47.0887 1.82935 47.0381 1.98913 47.0381 2.20109V3.57065H46.5099V1.125H47.0381V1.41848C47.1947 1.18043 47.4278 1.06141 47.7376 1.06141C48.0506 1.06141 48.2822 1.19022 48.4322 1.44783C48.5952 1.19022 48.8447 1.06141 49.1805 1.06141Z" fill="url(#paint10_linear_3598_1499)"/>
<path d="M52.6318 1.125H53.16V3.57065H52.6318V3.21848C52.4329 3.49565 52.1475 3.63424 51.7758 3.63424C51.4399 3.63424 51.153 3.51033 50.9149 3.2625C50.6769 3.01141 50.5579 2.70652 50.5579 2.34783C50.5579 1.98587 50.6769 1.68098 50.9149 1.43315C51.153 1.18533 51.4399 1.06141 51.7758 1.06141C52.1475 1.06141 52.4329 1.19837 52.6318 1.47228V1.125ZM51.3062 2.91033C51.453 3.05707 51.6372 3.13043 51.8589 3.13043C52.0807 3.13043 52.2649 3.05707 52.4117 2.91033C52.5584 2.76033 52.6318 2.57283 52.6318 2.34783C52.6318 2.12283 52.5584 1.93696 52.4117 1.79022C52.2649 1.64022 52.0807 1.56522 51.8589 1.56522C51.6372 1.56522 51.453 1.64022 51.3062 1.79022C51.1595 1.93696 51.0861 2.12283 51.0861 2.34783C51.0861 2.57283 51.1595 2.76033 51.3062 2.91033Z" fill="url(#paint11_linear_3598_1499)"/>
<path d="M55.0866 1.06141C55.3671 1.06141 55.5937 1.15109 55.7665 1.33043C55.9393 1.50978 56.0258 1.75598 56.0258 2.06902V3.57065H55.4975V2.12283C55.4975 1.94022 55.4486 1.8 55.3508 1.70217C55.2529 1.60435 55.1192 1.55543 54.9497 1.55543C54.7638 1.55543 54.6138 1.61413 54.4997 1.73152C54.3855 1.84565 54.3285 2.02174 54.3285 2.25978V3.57065H53.8002V1.125H54.3285V1.43804C54.4883 1.18696 54.741 1.06141 55.0866 1.06141Z" fill="url(#paint12_linear_3598_1499)"/>
<path d="M58.556 1.125H59.0842V3.57065H58.556V3.21848C58.3571 3.49565 58.0717 3.63424 57.7 3.63424C57.3641 3.63424 57.0772 3.51033 56.8391 3.2625C56.6011 3.01141 56.4821 2.70652 56.4821 2.34783C56.4821 1.98587 56.6011 1.68098 56.8391 1.43315C57.0772 1.18533 57.3641 1.06141 57.7 1.06141C58.0717 1.06141 58.3571 1.19837 58.556 1.47228V1.125ZM57.2304 2.91033C57.3772 3.05707 57.5614 3.13043 57.7831 3.13043C58.0049 3.13043 58.1891 3.05707 58.3359 2.91033C58.4826 2.76033 58.556 2.57283 58.556 2.34783C58.556 2.12283 58.4826 1.93696 58.3359 1.79022C58.1891 1.64022 58.0049 1.56522 57.7831 1.56522C57.5614 1.56522 57.3772 1.64022 57.2304 1.79022C57.0837 1.93696 57.0103 2.12283 57.0103 2.34783C57.0103 2.57283 57.0837 2.76033 57.2304 2.91033Z" fill="url(#paint13_linear_3598_1499)"/>
<path d="M61.6712 1.125H62.1896V3.45815C62.1896 3.82989 62.0674 4.11522 61.8228 4.31413C61.5782 4.51304 61.2815 4.6125 60.9326 4.6125C60.3684 4.6125 59.982 4.41522 59.7733 4.02065L60.2282 3.75652C60.3554 4.00761 60.5934 4.13315 60.9424 4.13315C61.1706 4.13315 61.3483 4.07283 61.4755 3.95217C61.6059 3.83478 61.6712 3.67011 61.6712 3.45815V3.15978C61.4722 3.44348 61.1886 3.58533 60.8201 3.58533C60.4744 3.58533 60.1826 3.46304 59.9445 3.21848C59.7065 2.97065 59.5875 2.67228 59.5875 2.32337C59.5875 1.97446 59.7065 1.67772 59.9445 1.43315C60.1826 1.18533 60.4744 1.06141 60.8201 1.06141C61.1886 1.06141 61.4722 1.20326 61.6712 1.48696V1.125ZM60.3358 2.8712C60.4858 3.01793 60.6717 3.0913 60.8934 3.0913C61.1152 3.0913 61.2994 3.01793 61.4462 2.8712C61.5962 2.72446 61.6712 2.54185 61.6712 2.32337C61.6712 2.10489 61.5962 1.92228 61.4462 1.77554C61.2994 1.6288 61.1152 1.55543 60.8934 1.55543C60.6717 1.55543 60.4858 1.6288 60.3358 1.77554C60.1891 1.92228 60.1157 2.10489 60.1157 2.32337C60.1157 2.54185 60.1891 2.72446 60.3358 2.8712Z" fill="url(#paint14_linear_3598_1499)"/>
<path d="M63.2456 2.57283C63.2847 2.7587 63.3744 2.90217 63.5146 3.00326C63.6548 3.10109 63.826 3.15 64.0282 3.15C64.3086 3.15 64.519 3.04891 64.6592 2.84674L65.0945 3.10109C64.8532 3.45652 64.4961 3.63424 64.0233 3.63424C63.6255 3.63424 63.3043 3.51359 63.0597 3.27228C62.8152 3.02772 62.6929 2.71957 62.6929 2.34783C62.6929 1.98261 62.8135 1.67772 63.0548 1.43315C63.2961 1.18533 63.6059 1.06141 63.9842 1.06141C64.3429 1.06141 64.6363 1.18696 64.8646 1.43804C65.0961 1.68913 65.2119 1.99402 65.2119 2.35272C65.2119 2.40815 65.2054 2.48152 65.1923 2.57283H63.2456ZM63.2407 2.14239H64.6787C64.6429 1.94348 64.5597 1.79348 64.4293 1.69239C64.3021 1.5913 64.1521 1.54076 63.9793 1.54076C63.7836 1.54076 63.6206 1.59457 63.4902 1.70217C63.3597 1.80978 63.2766 1.95652 63.2407 2.14239Z" fill="url(#paint15_linear_3598_1499)"/>
<path d="M68.3718 1.06141C68.649 1.06141 68.8724 1.15109 69.0419 1.33043C69.2115 1.50978 69.2963 1.75109 69.2963 2.05435V3.57065H68.768V2.08859C68.768 1.91902 68.7256 1.78859 68.6409 1.69728C68.5561 1.60272 68.4403 1.55543 68.2936 1.55543C68.1305 1.55543 68.0001 1.60924 67.9023 1.71685C67.8077 1.82446 67.7604 1.98587 67.7604 2.20109V3.57065H67.2322V2.08859C67.2322 1.91902 67.1914 1.78859 67.1099 1.69728C67.0316 1.60272 66.9191 1.55543 66.7724 1.55543C66.6126 1.55543 66.4822 1.61087 66.3811 1.72174C66.28 1.82935 66.2294 1.98913 66.2294 2.20109V3.57065H65.7012V1.125H66.2294V1.41848C66.386 1.18043 66.6191 1.06141 66.9289 1.06141C67.2419 1.06141 67.4735 1.19022 67.6235 1.44783C67.7865 1.19022 68.036 1.06141 68.3718 1.06141Z" fill="url(#paint16_linear_3598_1499)"/>
<path d="M70.3019 2.57283C70.341 2.7587 70.4307 2.90217 70.5709 3.00326C70.7111 3.10109 70.8823 3.15 71.0845 3.15C71.3649 3.15 71.5752 3.04891 71.7155 2.84674L72.1508 3.10109C71.9095 3.45652 71.5524 3.63424 71.0796 3.63424C70.6818 3.63424 70.3606 3.51359 70.116 3.27228C69.8714 3.02772 69.7491 2.71957 69.7491 2.34783C69.7491 1.98261 69.8698 1.67772 70.1111 1.43315C70.3524 1.18533 70.6622 1.06141 71.0405 1.06141C71.3991 1.06141 71.6926 1.18696 71.9209 1.43804C72.1524 1.68913 72.2682 1.99402 72.2682 2.35272C72.2682 2.40815 72.2617 2.48152 72.2486 2.57283H70.3019ZM70.297 2.14239H71.735C71.6992 1.94348 71.616 1.79348 71.4856 1.69239C71.3584 1.5913 71.2084 1.54076 71.0356 1.54076C70.8399 1.54076 70.6769 1.59457 70.5464 1.70217C70.416 1.80978 70.3328 1.95652 70.297 2.14239Z" fill="url(#paint17_linear_3598_1499)"/>
<path d="M74.0439 1.06141C74.3243 1.06141 74.5509 1.15109 74.7238 1.33043C74.8966 1.50978 74.983 1.75598 74.983 2.06902V3.57065H74.4547V2.12283C74.4547 1.94022 74.4058 1.8 74.308 1.70217C74.2102 1.60435 74.0765 1.55543 73.9069 1.55543C73.721 1.55543 73.571 1.61413 73.4569 1.73152C73.3428 1.84565 73.2857 2.02174 73.2857 2.25978V3.57065H72.7575V1.125H73.2857V1.43804C73.4455 1.18696 73.6982 1.06141 74.0439 1.06141Z" fill="url(#paint18_linear_3598_1499)"/>
<path d="M76.9409 1.6337H76.3344V2.80761C76.3344 2.9087 76.3572 2.98207 76.4029 3.02772C76.4485 3.07011 76.5154 3.09457 76.6034 3.10109C76.6947 3.10435 76.8072 3.10272 76.9409 3.0962V3.57065C76.5366 3.61957 76.2464 3.58533 76.0703 3.46793C75.8942 3.34728 75.8062 3.12717 75.8062 2.80761V1.6337H75.3562V1.125H75.8062V0.596739L76.3344 0.440217V1.125H76.9409V1.6337Z" fill="url(#paint19_linear_3598_1499)"/>
<path d="M79.87 3.63424C79.5015 3.63424 79.1934 3.51033 78.9456 3.2625C78.701 3.01467 78.5787 2.70978 78.5787 2.34783C78.5787 1.98261 78.701 1.67772 78.9456 1.43315C79.1934 1.18533 79.5015 1.06141 79.87 1.06141C80.1081 1.06141 80.3249 1.11848 80.5206 1.23261C80.7162 1.34674 80.863 1.5 80.9608 1.69239L80.5059 1.95652C80.4505 1.83913 80.3657 1.74783 80.2515 1.68261C80.1407 1.61413 80.0119 1.57989 79.8651 1.57989C79.6499 1.57989 79.4689 1.65326 79.3222 1.8C79.1787 1.94674 79.107 2.12935 79.107 2.34783C79.107 2.5663 79.1787 2.74891 79.3222 2.89565C79.4689 3.04239 79.6499 3.11576 79.8651 3.11576C80.0086 3.11576 80.1374 3.08152 80.2515 3.01304C80.3689 2.94457 80.457 2.85326 80.5157 2.73913L80.9706 2.99837C80.8662 3.19402 80.7162 3.34891 80.5206 3.46304C80.3249 3.57717 80.1081 3.63424 79.87 3.63424Z" fill="url(#paint20_linear_3598_1499)"/>
<path d="M82.493 3.63424C82.1343 3.63424 81.8294 3.51033 81.5783 3.2625C81.3272 3.01467 81.2017 2.70978 81.2017 2.34783C81.2017 1.98587 81.3272 1.68098 81.5783 1.43315C81.8294 1.18533 82.1343 1.06141 82.493 1.06141C82.8549 1.06141 83.1598 1.18533 83.4077 1.43315C83.6587 1.68098 83.7843 1.98587 83.7843 2.34783C83.7843 2.70978 83.6587 3.01467 83.4077 3.2625C83.1598 3.51033 82.8549 3.63424 82.493 3.63424ZM81.9501 2.90054C82.0968 3.04728 82.2778 3.12065 82.493 3.12065C82.7082 3.12065 82.8892 3.04728 83.0359 2.90054C83.1827 2.7538 83.256 2.56957 83.256 2.34783C83.256 2.12609 83.1827 1.94185 83.0359 1.79511C82.8892 1.64837 82.7082 1.575 82.493 1.575C82.2778 1.575 82.0968 1.64837 81.9501 1.79511C81.8033 1.94185 81.7299 2.12609 81.7299 2.34783C81.7299 2.56957 81.8033 2.7538 81.9501 2.90054Z" fill="url(#paint21_linear_3598_1499)"/>
<path d="M86.9571 1.06141C87.2342 1.06141 87.4576 1.15109 87.6272 1.33043C87.7967 1.50978 87.8815 1.75109 87.8815 2.05435V3.57065H87.3533V2.08859C87.3533 1.91902 87.3109 1.78859 87.2261 1.69728C87.1413 1.60272 87.0255 1.55543 86.8788 1.55543C86.7158 1.55543 86.5853 1.60924 86.4875 1.71685C86.3929 1.82446 86.3456 1.98587 86.3456 2.20109V3.57065H85.8174V2.08859C85.8174 1.91902 85.7766 1.78859 85.6951 1.69728C85.6168 1.60272 85.5043 1.55543 85.3576 1.55543C85.1978 1.55543 85.0674 1.61087 84.9663 1.72174C84.8652 1.82935 84.8147 1.98913 84.8147 2.20109V3.57065H84.2864V1.125H84.8147V1.41848C84.9712 1.18043 85.2043 1.06141 85.5141 1.06141C85.8272 1.06141 86.0587 1.19022 86.2087 1.44783C86.3717 1.19022 86.6212 1.06141 86.9571 1.06141Z" fill="url(#paint22_linear_3598_1499)"/>
<path d="M89.8556 1.06141C90.1915 1.06141 90.4784 1.18696 90.7165 1.43804C90.9545 1.68587 91.0735 1.98913 91.0735 2.34783C91.0735 2.70978 90.9545 3.01467 90.7165 3.2625C90.4784 3.51033 90.1915 3.63424 89.8556 3.63424C89.4838 3.63424 89.1985 3.49728 88.9996 3.22337V4.54891H88.4713V1.125H88.9996V1.47717C89.1985 1.2 89.4838 1.06141 89.8556 1.06141ZM89.2197 2.91033C89.3665 3.05707 89.5507 3.13043 89.7724 3.13043C89.9942 3.13043 90.1784 3.05707 90.3251 2.91033C90.4719 2.76033 90.5453 2.57283 90.5453 2.34783C90.5453 2.12283 90.4719 1.93696 90.3251 1.79022C90.1784 1.64022 89.9942 1.56522 89.7724 1.56522C89.5507 1.56522 89.3665 1.64022 89.2197 1.79022C89.073 1.93696 88.9996 2.12283 88.9996 2.34783C88.9996 2.57283 89.073 2.76033 89.2197 2.91033Z" fill="url(#paint23_linear_3598_1499)"/>
<path d="M93.5137 1.125H94.042V3.57065H93.5137V3.21848C93.3148 3.49565 93.0295 3.63424 92.6577 3.63424C92.3219 3.63424 92.0349 3.51033 91.7969 3.2625C91.5588 3.01141 91.4398 2.70652 91.4398 2.34783C91.4398 1.98587 91.5588 1.68098 91.7969 1.43315C92.0349 1.18533 92.3219 1.06141 92.6577 1.06141C93.0295 1.06141 93.3148 1.19837 93.5137 1.47228V1.125ZM92.1882 2.91033C92.3349 3.05707 92.5191 3.13043 92.7409 3.13043C92.9626 3.13043 93.1469 3.05707 93.2936 2.91033C93.4403 2.76033 93.5137 2.57283 93.5137 2.34783C93.5137 2.12283 93.4403 1.93696 93.2936 1.79022C93.1469 1.64022 92.9626 1.56522 92.7409 1.56522C92.5191 1.56522 92.3349 1.64022 92.1882 1.79022C92.0414 1.93696 91.9681 2.12283 91.9681 2.34783C91.9681 2.57283 92.0414 2.76033 92.1882 2.91033Z" fill="url(#paint24_linear_3598_1499)"/>
<path d="M95.9686 1.06141C96.249 1.06141 96.4756 1.15109 96.6485 1.33043C96.8213 1.50978 96.9077 1.75598 96.9077 2.06902V3.57065H96.3794V2.12283C96.3794 1.94022 96.3305 1.8 96.2327 1.70217C96.1349 1.60435 96.0012 1.55543 95.8316 1.55543C95.6457 1.55543 95.4957 1.61413 95.3816 1.73152C95.2675 1.84565 95.2104 2.02174 95.2104 2.25978V3.57065H94.6822V1.125H95.2104V1.43804C95.3702 1.18696 95.6229 1.06141 95.9686 1.06141Z" fill="url(#paint25_linear_3598_1499)"/>
<path d="M99.1016 1.125H99.6641L98.7249 3.64891C98.4902 4.28152 98.0923 4.58152 97.5315 4.54891V4.05489C97.6978 4.06467 97.8315 4.0288 97.9325 3.94728C98.0336 3.86902 98.1168 3.74511 98.182 3.57554L98.2065 3.52663L97.1695 1.125H97.7467L98.4755 2.90054L99.1016 1.125Z" fill="url(#paint26_linear_3598_1499)"/>
<rect x="39.4023" y="7.10303" width="60.5978" height="19.0217" fill="url(#paint27_linear_3598_1499)"/>
</g>
<defs>
<linearGradient id="paint0_linear_3598_1499" x1="56.25" y1="36.0722" x2="99.7283" y2="36.0722" gradientUnits="userSpaceOnUse">
<stop stop-color="#1F81C2"/>
<stop offset="1" stop-color="#8E35A6"/>
</linearGradient>
<linearGradient id="paint1_linear_3598_1499" x1="56.25" y1="36.0722" x2="99.7283" y2="36.0722" gradientUnits="userSpaceOnUse">
<stop stop-color="#1F81C2"/>
<stop offset="1" stop-color="#8E35A6"/>
</linearGradient>
<linearGradient id="paint2_linear_3598_1499" x1="56.25" y1="36.0722" x2="99.7283" y2="36.0722" gradientUnits="userSpaceOnUse">
<stop stop-color="#1F81C2"/>
<stop offset="1" stop-color="#8E35A6"/>
</linearGradient>
<linearGradient id="paint3_linear_3598_1499" x1="56.25" y1="36.0722" x2="99.7283" y2="36.0722" gradientUnits="userSpaceOnUse">
<stop stop-color="#1F81C2"/>
<stop offset="1" stop-color="#8E35A6"/>
</linearGradient>
<linearGradient id="paint4_linear_3598_1499" x1="56.25" y1="36.0722" x2="99.7283" y2="36.0722" gradientUnits="userSpaceOnUse">
<stop stop-color="#1F81C2"/>
<stop offset="1" stop-color="#8E35A6"/>
</linearGradient>
<linearGradient id="paint5_linear_3598_1499" x1="56.25" y1="36.0722" x2="99.7283" y2="36.0722" gradientUnits="userSpaceOnUse">
<stop stop-color="#1F81C2"/>
<stop offset="1" stop-color="#8E35A6"/>
</linearGradient>
<linearGradient id="paint6_linear_3598_1499" x1="7.95907e-07" y1="16.8508" x2="31.25" y2="16.8508" gradientUnits="userSpaceOnUse">
<stop stop-color="#1F81C2"/>
<stop offset="1" stop-color="#8E35A6"/>
</linearGradient>
<linearGradient id="paint7_linear_3598_1499" x1="39.8457" y1="2.32113" x2="99.6641" y2="2.32114" gradientUnits="userSpaceOnUse">
<stop stop-color="#1F81C2"/>
<stop offset="1" stop-color="#8E35A6"/>
</linearGradient>
<linearGradient id="paint8_linear_3598_1499" x1="39.8457" y1="2.32113" x2="99.6641" y2="2.32114" gradientUnits="userSpaceOnUse">
<stop stop-color="#1F81C2"/>
<stop offset="1" stop-color="#8E35A6"/>
</linearGradient>
<linearGradient id="paint9_linear_3598_1499" x1="39.8457" y1="2.32113" x2="99.6641" y2="2.32114" gradientUnits="userSpaceOnUse">
<stop stop-color="#1F81C2"/>
<stop offset="1" stop-color="#8E35A6"/>
</linearGradient>
<linearGradient id="paint10_linear_3598_1499" x1="39.8457" y1="2.32113" x2="99.6641" y2="2.32114" gradientUnits="userSpaceOnUse">
<stop stop-color="#1F81C2"/>
<stop offset="1" stop-color="#8E35A6"/>
</linearGradient>
<linearGradient id="paint11_linear_3598_1499" x1="39.8457" y1="2.32113" x2="99.6641" y2="2.32114" gradientUnits="userSpaceOnUse">
<stop stop-color="#1F81C2"/>
<stop offset="1" stop-color="#8E35A6"/>
</linearGradient>
<linearGradient id="paint12_linear_3598_1499" x1="39.8457" y1="2.32113" x2="99.6641" y2="2.32114" gradientUnits="userSpaceOnUse">
<stop stop-color="#1F81C2"/>
<stop offset="1" stop-color="#8E35A6"/>
</linearGradient>
<linearGradient id="paint13_linear_3598_1499" x1="39.8457" y1="2.32113" x2="99.6641" y2="2.32114" gradientUnits="userSpaceOnUse">
<stop stop-color="#1F81C2"/>
<stop offset="1" stop-color="#8E35A6"/>
</linearGradient>
<linearGradient id="paint14_linear_3598_1499" x1="39.8457" y1="2.32113" x2="99.6641" y2="2.32114" gradientUnits="userSpaceOnUse">
<stop stop-color="#1F81C2"/>
<stop offset="1" stop-color="#8E35A6"/>
</linearGradient>
<linearGradient id="paint15_linear_3598_1499" x1="39.8457" y1="2.32113" x2="99.6641" y2="2.32114" gradientUnits="userSpaceOnUse">
<stop stop-color="#1F81C2"/>
<stop offset="1" stop-color="#8E35A6"/>
</linearGradient>
<linearGradient id="paint16_linear_3598_1499" x1="39.8457" y1="2.32113" x2="99.6641" y2="2.32114" gradientUnits="userSpaceOnUse">
<stop stop-color="#1F81C2"/>
<stop offset="1" stop-color="#8E35A6"/>
</linearGradient>
<linearGradient id="paint17_linear_3598_1499" x1="39.8457" y1="2.32113" x2="99.6641" y2="2.32114" gradientUnits="userSpaceOnUse">
<stop stop-color="#1F81C2"/>
<stop offset="1" stop-color="#8E35A6"/>
</linearGradient>
<linearGradient id="paint18_linear_3598_1499" x1="39.8457" y1="2.32113" x2="99.6641" y2="2.32114" gradientUnits="userSpaceOnUse">
<stop stop-color="#1F81C2"/>
<stop offset="1" stop-color="#8E35A6"/>
</linearGradient>
<linearGradient id="paint19_linear_3598_1499" x1="39.8457" y1="2.32113" x2="99.6641" y2="2.32114" gradientUnits="userSpaceOnUse">
<stop stop-color="#1F81C2"/>
<stop offset="1" stop-color="#8E35A6"/>
</linearGradient>
<linearGradient id="paint20_linear_3598_1499" x1="39.8457" y1="2.32113" x2="99.6641" y2="2.32114" gradientUnits="userSpaceOnUse">
<stop stop-color="#1F81C2"/>
<stop offset="1" stop-color="#8E35A6"/>
</linearGradient>
<linearGradient id="paint21_linear_3598_1499" x1="39.8457" y1="2.32113" x2="99.6641" y2="2.32114" gradientUnits="userSpaceOnUse">
<stop stop-color="#1F81C2"/>
<stop offset="1" stop-color="#8E35A6"/>
</linearGradient>
<linearGradient id="paint22_linear_3598_1499" x1="39.8457" y1="2.32113" x2="99.6641" y2="2.32114" gradientUnits="userSpaceOnUse">
<stop stop-color="#1F81C2"/>
<stop offset="1" stop-color="#8E35A6"/>
</linearGradient>
<linearGradient id="paint23_linear_3598_1499" x1="39.8457" y1="2.32113" x2="99.6641" y2="2.32114" gradientUnits="userSpaceOnUse">
<stop stop-color="#1F81C2"/>
<stop offset="1" stop-color="#8E35A6"/>
</linearGradient>
<linearGradient id="paint24_linear_3598_1499" x1="39.8457" y1="2.32113" x2="99.6641" y2="2.32114" gradientUnits="userSpaceOnUse">
<stop stop-color="#1F81C2"/>
<stop offset="1" stop-color="#8E35A6"/>
</linearGradient>
<linearGradient id="paint25_linear_3598_1499" x1="39.8457" y1="2.32113" x2="99.6641" y2="2.32114" gradientUnits="userSpaceOnUse">
<stop stop-color="#1F81C2"/>
<stop offset="1" stop-color="#8E35A6"/>
</linearGradient>
<linearGradient id="paint26_linear_3598_1499" x1="39.8457" y1="2.32113" x2="99.6641" y2="2.32114" gradientUnits="userSpaceOnUse">
<stop stop-color="#1F81C2"/>
<stop offset="1" stop-color="#8E35A6"/>
</linearGradient>
<linearGradient id="paint27_linear_3598_1499" x1="39.4023" y1="16.6753" x2="100" y2="16.6753" gradientUnits="userSpaceOnUse">
<stop stop-color="#1F81C2"/>
<stop offset="1" stop-color="#8E35A6"/>
</linearGradient>
<clipPath id="clip0_3598_1499">
<rect width="100" height="40" fill="white"/>
</clipPath>
</defs>
</svg>
