<svg width="40" height="41" viewBox="0 0 40 41" fill="none" xmlns="http://www.w3.org/2000/svg">
<rect x="0.5" y="1" width="39" height="39" rx="3.5" stroke="white"/>
<g clip-path="url(#clip0_4397_16920)">
<path d="M31.625 29.5H30.5V24.625C30.4997 24.3267 30.381 24.0408 30.1701 23.8299C29.9592 23.619 29.6733 23.5003 29.375 23.5H29V22.375C29 22.2755 28.9605 22.1802 28.8902 22.1098C28.8198 22.0395 28.7245 22 28.625 22H27.3869C27.1514 20.8566 26.5669 19.8145 25.7139 19.0174C24.861 18.2204 23.7817 17.7077 22.625 17.5501V17.125C22.6247 16.8267 22.506 16.5408 22.2951 16.3299C22.0842 16.119 21.7983 16.0003 21.5 16H20C19.7017 16.0003 19.4158 16.119 19.2049 16.3299C18.994 16.5408 18.8753 16.8267 18.875 17.125V17.5H16.625V17.125C16.625 16.8266 16.5065 16.5405 16.2955 16.3295C16.0845 16.1185 15.7984 16 15.5 16C15.2016 16 14.9155 16.1185 14.7045 16.3295C14.4935 16.5405 14.375 16.8266 14.375 17.125V17.5C12.8832 17.5 11.4524 18.0926 10.3975 19.1475C9.34263 20.2024 8.75 21.6332 8.75 23.125C8.75 24.6168 9.34263 26.0476 10.3975 27.1025C11.4524 28.1574 12.8832 28.75 14.375 28.75V29.5H8.375C8.27554 29.5 8.18016 29.5395 8.10983 29.6098C8.03951 29.6802 8 29.7755 8 29.875V31.375C8 31.4745 8.03951 31.5698 8.10983 31.6402C8.18016 31.7105 8.27554 31.75 8.375 31.75H31.625C31.7245 31.75 31.8198 31.7105 31.8902 31.6402C31.9605 31.5698 32 31.4745 32 31.375V29.875C32 29.7755 31.9605 29.6802 31.8902 29.6098C31.8198 29.5395 31.7245 29.5 31.625 29.5ZM29 25.375V24.25H29.375C29.4744 24.2501 29.5697 24.2897 29.64 24.36C29.7103 24.4303 29.7499 24.5256 29.75 24.625V29.5H28.625V27.625C28.6247 27.3267 28.506 27.0408 28.2951 26.8299C28.0842 26.619 27.7983 26.5003 27.5 26.5H26.3761C26.5546 26.263 26.714 26.0122 26.8527 25.75H28.625C28.7245 25.75 28.8198 25.7105 28.8902 25.6402C28.9605 25.5698 29 25.4745 29 25.375ZM19.669 29.5H16.625V28.75H19.7627L19.669 29.5ZM22.581 29.5L22.4832 28.7172C23.6855 28.5883 24.8137 28.0736 25.6991 27.25H27.5C27.5994 27.2501 27.6947 27.2897 27.765 27.36C27.8353 27.4303 27.8749 27.5256 27.875 27.625V29.5H22.581ZM28.25 22.75V25H27.1813C27.3931 24.3976 27.5008 23.7636 27.5 23.125C27.5 22.999 27.4953 22.874 27.4872 22.75H28.25ZM19.625 17.125C19.6251 17.0256 19.6647 16.9303 19.735 16.86C19.8053 16.7897 19.9006 16.7501 20 16.75H21.5C21.5994 16.7501 21.6947 16.7897 21.765 16.86C21.8353 16.9303 21.8749 17.0256 21.875 17.125V17.5H19.625V17.125ZM21.875 18.25C22.6933 18.2503 23.4983 18.4566 24.2159 18.8498C24.9335 19.243 25.5406 19.8105 25.9813 20.5H17.375V21.25H26.375C26.6671 21.9505 26.7915 22.7096 26.7384 23.4667C26.6853 24.2238 26.4561 24.958 26.0691 25.6109C25.6821 26.2638 25.148 26.8173 24.5094 27.2274C23.8707 27.6374 23.1451 27.8926 22.3903 27.9727L22.2473 26.8285C22.236 26.7378 22.1919 26.6543 22.1233 26.5938C22.0548 26.5333 21.9664 26.4999 21.875 26.5H20.375C20.2836 26.5 20.1953 26.5334 20.1268 26.5939C20.0583 26.6544 20.0142 26.7378 20.0029 26.8285L19.8565 28H16.625V18.25H21.875ZM21.8252 29.5H20.4248L20.706 27.25H21.544L21.8252 29.5ZM15.875 26.5H15.125V25.75H15.875V26.5ZM15.875 25H15.125V24.25H15.875V25ZM15.875 23.5H15.125V22.75H15.875V23.5ZM15.875 22H15.125V21.25H15.875V22ZM15.875 20.5H15.125V19.75H15.875V20.5ZM15.875 19H15.125V18.25H15.875V19ZM15.125 27.25H15.875V28H15.125V27.25ZM15.125 17.125C15.125 17.0255 15.1645 16.9302 15.2348 16.8598C15.3052 16.7895 15.4005 16.75 15.5 16.75C15.5995 16.75 15.6948 16.7895 15.7652 16.8598C15.8355 16.9302 15.875 17.0255 15.875 17.125V17.5H15.125V17.125ZM9.5 23.125C9.49895 22.4815 9.62546 21.8443 9.87223 21.25H13.625V20.5H10.2653C10.4559 20.2029 10.6779 19.9273 10.9276 19.6777C11.3793 19.2237 11.9166 18.8637 12.5083 18.6187C13.1001 18.3736 13.7345 18.2483 14.375 18.25V28C13.0825 27.9985 11.8434 27.4845 10.9295 26.5705C10.0155 25.6566 9.50146 24.4175 9.5 23.125ZM15.125 28.75H15.875V29.5H15.125V28.75ZM31.25 31H8.75V30.25H31.25V31Z" fill="#1E82C1"/>
<path d="M28.25 20.5V14.875H29V14.125H9.5V14.875H10.25V17.5H11V14.875H27.5V20.5H28.25Z" fill="#1E82C1"/>
<path d="M24.125 10V11.125H20.75C20.6505 11.125 20.5552 11.1645 20.4848 11.2348C20.4145 11.3052 20.375 11.4005 20.375 11.5V13.375H21.125V11.875H26.375V13.375H27.125V11.5C27.125 11.4005 27.0855 11.3052 27.0152 11.2348C26.9448 11.1645 26.8495 11.125 26.75 11.125H26.375V9.25H25.625V11.125H24.875V10H24.125Z" fill="#1E82C1"/>
</g>
<defs>
<clipPath id="clip0_4397_16920">
<rect width="24" height="24" fill="white" transform="translate(8 8.5)"/>
</clipPath>
</defs>
</svg>
